<svg width="24" height="25" viewBox="0 0 24 25" fill="none" xmlns="http://www.w3.org/2000/svg">
<g clip-path="url(#clip0_287:365)">
<path d="M15.0501 5.20001C16.0268 5.39058 16.9244 5.86827 17.6281 6.57195C18.3318 7.27563 18.8095 8.17328 19.0001 9.15001M15.0501 1.20001C17.0793 1.42545 18.9716 2.33419 20.4163 3.77702C21.8609 5.21985 22.7721 7.11102 23.0001 9.14001M22.0001 17.12V20.12C22.0012 20.3985 21.9441 20.6742 21.8326 20.9294C21.721 21.1845 21.5574 21.4136 21.3521 21.6019C21.1469 21.7902 20.9046 21.9335 20.6408 22.0227C20.377 22.1119 20.0974 22.1451 19.8201 22.12C16.7429 21.7857 13.7871 20.7342 11.1901 19.05C8.77388 17.5147 6.72539 15.4662 5.19006 13.05C3.50003 10.4412 2.4483 7.47101 2.12006 4.38001C2.09507 4.10348 2.12793 3.82477 2.21656 3.56164C2.30518 3.2985 2.44763 3.0567 2.63482 2.85163C2.82202 2.64657 3.04986 2.48272 3.30385 2.37053C3.55783 2.25835 3.8324 2.20027 4.11006 2.20001H7.11006C7.59536 2.19524 8.06585 2.36709 8.43382 2.68354C8.80179 3 9.04213 3.43946 9.11005 3.92001C9.23668 4.88008 9.47151 5.82274 9.81006 6.73001C9.9446 7.08794 9.97372 7.47693 9.89396 7.85089C9.81421 8.22486 9.62892 8.56812 9.36005 8.84001L8.09006 10.11C9.51361 12.6136 11.5865 14.6865 14.0901 16.11L15.3601 14.84C15.6319 14.5711 15.9752 14.3859 16.3492 14.3061C16.7231 14.2263 17.1121 14.2555 17.4701 14.39C18.3773 14.7286 19.32 14.9634 20.2801 15.09C20.7658 15.1585 21.2095 15.4032 21.5266 15.7775C21.8437 16.1518 22.0122 16.6296 22.0001 17.12Z" stroke="#3E2E83" stroke-width="1.6" stroke-linecap="round" stroke-linejoin="round"/>
</g>
<defs>
<clipPath id="clip0_287:365">
<rect width="24" height="24" fill="white" transform="translate(0 0.200012)"/>
</clipPath>
</defs>
</svg>
