<svg width="22" height="20" viewBox="0 0 22 20" fill="none" xmlns="http://www.w3.org/2000/svg">
<path d="M21.7785 1.38749C21.6952 1.24228 21.5751 1.12161 21.4303 1.03768C21.2854 0.953743 21.121 0.90951 20.9536 0.909446L16.2196 0.905722L16.2126 0.90477L12.7425 0.905722C12.5898 0.905881 12.4393 0.942711 12.3038 1.01311C12.1682 1.08352 12.0516 1.18544 11.9636 1.3103L11.4316 2.0683L10.894 1.30845C10.8062 1.18399 10.6898 1.08244 10.5546 1.01235C10.4194 0.94227 10.2693 0.9057 10.117 0.905722L6.64461 0.90477H6.64414L6.64275 0.904941L6.64135 0.90477H6.63623L1.89991 0.930808C1.73259 0.931644 1.56845 0.976551 1.42401 1.06101C1.27957 1.14546 1.15993 1.26648 1.07714 1.41188C0.994345 1.55729 0.951327 1.72194 0.952413 1.88925C0.953498 2.05657 0.99865 2.22065 1.08332 2.36496L10.6257 18.6559C10.7098 18.7992 10.8299 18.918 10.974 19.0005C11.1181 19.0831 11.2813 19.1265 11.4474 19.1265H11.4484C11.6147 19.1264 11.7782 19.0827 11.9224 18.9998C12.0666 18.9169 12.1867 18.7977 12.2706 18.6541L21.7757 2.34178C21.8599 2.19695 21.9045 2.03252 21.905 1.86501C21.9055 1.6975 21.8619 1.53281 21.7785 1.38749ZM9.62359 2.8105L10.6569 4.2707C10.7448 4.39521 10.8613 4.49679 10.9966 4.56687C11.1319 4.63696 11.2821 4.6735 11.4345 4.67342H11.4358C11.5884 4.67305 11.7387 4.63612 11.874 4.56573C12.0094 4.49534 12.1259 4.39353 12.2138 4.26884L13.2378 2.8105L14.5356 2.80955L11.4461 8.00358L8.32708 2.80958L9.62359 2.8105ZM11.4451 16.2861L3.56146 2.82632L6.10424 2.81237L10.6313 10.3533C10.716 10.4943 10.8357 10.6109 10.9788 10.6919C11.1219 10.7729 11.2835 10.8155 11.4479 10.8156H11.4497L11.4507 10.8154L11.4517 10.8156H11.4536C11.6184 10.8152 11.7802 10.772 11.9234 10.6904C12.0665 10.6087 12.186 10.4913 12.2701 10.3496L16.754 2.81055L19.2963 2.81334L11.4451 16.2861Z" fill="#3E2E83"/>
</svg>
